<svg width="22" height="22" viewBox="0 0 22 22" fill="none" xmlns="http://www.w3.org/2000/svg">
<path d="M18.6673 1.40381H16.4521V0.959727C16.4521 0.579277 16.15 0.270996 15.7778 0.270996C15.4051 0.270996 15.1033 0.579277 15.1033 0.959727V1.40381H7.39917V0.959727C7.39917 0.579277 7.09708 0.270996 6.72477 0.270996C6.35223 0.270996 6.05035 0.579277 6.05035 0.959727V1.40381H3.7779C2.98089 1.40381 2.21637 1.72685 1.65242 2.30216C1.08864 2.87743 0.771433 3.65771 0.770508 4.47188V18.1071C0.771411 18.9211 1.08863 19.7014 1.65242 20.2767C2.21641 20.852 2.98089 21.175 3.7779 21.175H18.6671C19.4641 21.175 20.2287 20.852 20.7927 20.2767C21.3564 19.7014 21.6736 18.9211 21.6745 18.1071V4.47188C21.6737 3.65771 21.3564 2.87743 20.7927 2.30216C20.2287 1.72686 19.4643 1.40381 18.6673 1.40381ZM2.11915 4.47188C2.11915 4.02341 2.29367 3.59337 2.60413 3.27634C2.91458 2.9593 3.33564 2.78107 3.77457 2.78107H6.04703V3.22883C6.04703 3.60906 6.34914 3.91733 6.72145 3.91733C7.09375 3.91733 7.39586 3.60905 7.39586 3.22883V2.78129L15.1034 2.78107V3.22883C15.1034 3.60906 15.4053 3.91733 15.7779 3.91733C16.1502 3.91733 16.4523 3.60905 16.4523 3.22883V2.78129H18.6674C19.107 2.78059 19.5289 2.95792 19.8401 3.27518C20.1512 3.59223 20.3262 4.02295 20.3262 4.47184V7.01303H2.11926L2.11915 4.47188ZM18.6673 19.7977H3.77801C3.33841 19.7987 2.91645 19.6209 2.60531 19.3038C2.29419 18.9865 2.1192 18.556 2.1192 18.1071V8.39011H20.3262V18.1071C20.3262 18.5562 20.1512 18.9865 19.84 19.3038C19.5289 19.6209 19.1068 19.7987 18.6673 19.7977Z" fill="#E53935"/>
</svg>
