<svg width="25" height="24" viewBox="0 0 25 24" fill="none" xmlns="http://www.w3.org/2000/svg">
<path d="M12.3237 0.271291C5.79374 0.271291 0.479492 4.49471 0.479492 9.68745C0.479492 14.8803 5.79357 19.1218 12.3237 19.1218C13.6494 19.1243 14.9693 18.9467 16.2466 18.5935L22.3632 21.175L21.5756 15.5918C23.1983 14.0534 24.1331 11.9319 24.1707 9.70217C24.1678 4.49736 18.854 0.271291 12.3237 0.271291ZM20.8694 19.2269L16.3187 17.3207L16.1107 17.3808C14.881 17.7416 13.6054 17.9235 12.3235 17.921C6.45743 17.921 1.68636 14.22 1.68636 9.69052C1.68636 5.16103 6.45716 1.47181 12.3235 1.47181C18.1898 1.47181 22.9605 5.15798 22.9605 9.69052C22.9605 11.5965 22.0947 13.4546 20.5193 14.9225L20.2898 15.1357L20.8694 19.2269Z" fill="#E53935"/>
</svg>
