<svg width="25" height="25" viewBox="0 0 25 25" fill="none" xmlns="http://www.w3.org/2000/svg">
<path d="M17.1834 2.32697C18.5084 2.33093 19.7779 2.85902 20.7148 3.79591C21.6517 4.7328 22.1798 6.00237 22.1838 7.32733V17.327C22.1798 18.6519 21.6517 19.9215 20.7148 20.8584C19.7779 21.7953 18.5084 22.3234 17.1834 22.3273H7.18377C5.85881 22.3234 4.58925 21.7953 3.65236 20.8584C2.71546 19.9215 2.18737 18.6519 2.18342 17.327V7.32733C2.18737 6.00237 2.71546 4.7328 3.65236 3.79591C4.58925 2.85902 5.85881 2.33093 7.18377 2.32697H17.1834ZM17.1834 0.327148H7.18377C3.33359 0.327148 0.183594 3.47715 0.183594 7.32733V17.327C0.183594 21.1771 3.33359 24.3271 7.18377 24.3271H17.1834C21.0336 24.3271 24.1836 21.1771 24.1836 17.327V7.32733C24.1836 3.47715 21.0336 0.327148 17.1834 0.327148Z" fill="#E53935"/>
<path d="M18.6834 7.32715C18.3867 7.32715 18.0967 7.23918 17.8501 7.07435C17.6034 6.90953 17.4111 6.67526 17.2976 6.40117C17.1841 6.12708 17.1544 5.82549 17.2122 5.53451C17.2701 5.24354 17.413 4.97627 17.6228 4.76649C17.8325 4.55671 18.0998 4.41385 18.3908 4.35597C18.6818 4.29809 18.9834 4.3278 19.2574 4.44133C19.5315 4.55486 19.7658 4.74712 19.9306 4.99379C20.0954 5.24047 20.1834 5.53048 20.1834 5.82715C20.1838 6.02425 20.1453 6.2195 20.0701 6.40167C19.9949 6.58385 19.8844 6.74938 19.745 6.88875C19.6056 7.02813 19.4401 7.1386 19.2579 7.21383C19.0758 7.28906 18.8805 7.32757 18.6834 7.32715ZM12.1836 8.32679C12.9748 8.32679 13.7482 8.5614 14.406 9.00094C15.0638 9.44049 15.5765 10.0652 15.8793 10.7962C16.182 11.5271 16.2613 12.3314 16.1069 13.1074C15.9526 13.8833 15.5716 14.5961 15.0121 15.1555C14.4527 15.715 13.7399 16.0959 12.964 16.2503C12.188 16.4046 11.3837 16.3254 10.6528 16.0227C9.92186 15.7199 9.29711 15.2072 8.85757 14.5494C8.41802 13.8915 8.18342 13.1181 8.18342 12.327C8.18455 11.2664 8.60636 10.2496 9.3563 9.49967C10.1062 8.74974 11.123 8.32793 12.1836 8.32679ZM12.1836 6.32697C10.9969 6.32697 9.83687 6.67886 8.85017 7.33815C7.86348 7.99744 7.09444 8.93451 6.64032 10.0309C6.18619 11.1272 6.06737 12.3336 6.29888 13.4975C6.5304 14.6614 7.10184 15.7305 7.94096 16.5696C8.78007 17.4087 9.84917 17.9802 11.0131 18.2117C12.1769 18.4432 13.3833 18.3244 14.4797 17.8702C15.5761 17.4161 16.5131 16.6471 17.1724 15.6604C17.8317 14.6737 18.1836 13.5137 18.1836 12.327C18.1836 10.7357 17.5515 9.20955 16.4262 8.08433C15.301 6.95911 13.7749 6.32697 12.1836 6.32697Z" fill="#E53935"/>
</svg>
