<svg width="70" height="60" viewBox="0 0 70 60" fill="none" xmlns="http://www.w3.org/2000/svg">
<mask id="mask0_837_14796" style="mask-type:alpha" maskUnits="userSpaceOnUse" x="17" y="7" width="37" height="37">
<path d="M35.3169 7.11923L19.8969 7.13772L23.9457 11.1866C19.8896 14.5003 17.2988 19.5414 17.2988 25.1879C17.2988 25.2499 17.2991 25.3118 17.2998 25.3736L17.3153 40.7134L21.367 36.6646C24.6808 40.7207 29.7219 43.3115 35.3683 43.3115C41.2444 43.3115 46.4648 40.5067 49.7648 36.163L43.1282 29.4567C41.5943 32.2935 38.5947 34.1164 35.3686 34.1164C32.4679 34.1164 29.5788 32.4131 28.0382 29.9952L32.7359 25.2975L26.4946 25.2963C26.4942 25.2603 26.494 25.2242 26.494 25.1881C26.494 22.2875 28.1972 19.3984 30.6151 17.8577L35.3128 22.5554L35.314 16.315C35.3501 16.3146 35.3863 16.3144 35.4224 16.3144C38.323 16.3144 41.2122 18.0176 42.7528 20.4355L38.0551 25.1332L53.4908 25.1362L53.4913 25.1373L53.4728 9.71729L49.4239 13.7662C46.1102 9.70997 41.0691 7.11923 35.4226 7.11923C35.3871 7.11923 35.3523 7.11903 35.3169 7.11923Z" fill="black"/>
</mask>
<g mask="url(#mask0_837_14796)">
<path d="M53.4913 25.1372C53.4913 25.11 53.4728 9.7172 53.4728 9.7172L49.4239 13.7661C46.1102 9.70988 41.0691 7.11914 35.4226 7.11914C29.5465 7.11914 24.3262 9.92393 21.0262 14.2676L27.6628 20.974C29.1967 18.1371 32.1963 16.3143 35.4224 16.3143C38.323 16.3143 41.2121 18.0175 42.7528 20.4354L38.0551 25.1331L53.4907 25.1361" fill="#1C3AA9"/>
<g filter="url(#filter0_d_837_14796)">
<path d="M35.3169 7.11914L19.8969 7.13762L23.9457 11.1865C19.8896 14.5002 17.2988 19.5413 17.2988 25.1878C17.2988 31.0639 20.1037 36.2842 24.4473 39.5842L31.1536 32.9476C28.3168 31.4137 26.494 28.4141 26.494 25.188C26.494 22.2874 28.1972 19.3983 30.6151 17.8576L35.3128 22.5553L35.3158 7.11966" fill="#4285F4"/>
</g>
<g filter="url(#filter1_d_837_14796)">
<path d="M17.2997 25.293L17.3153 40.7129L21.367 36.6641C24.6808 40.7203 29.7219 43.311 35.3683 43.311C41.2444 43.311 46.4648 40.5062 49.7648 36.1626L43.1282 29.4562C41.5943 32.293 38.5947 34.1159 35.3686 34.1159C32.4679 34.1159 29.5788 32.4127 28.0382 29.9947L32.7359 25.297L17.3002 25.294" fill="#D9D9D9"/>
</g>
</g>
<g clip-path="url(#clip0_837_14796)">
<path d="M9.68622 53.9316V48.3409H11.3445C12.371 48.3409 13.3028 48.7041 13.3028 49.8728C13.3028 51.0968 12.2605 51.4205 11.4708 51.4205H10.3495V53.9316H9.68622ZM10.3495 48.9568V50.8046H11.4708C12.1342 50.8046 12.5922 50.5045 12.5922 49.8807C12.5922 49.2569 12.1342 48.9568 11.4708 48.9568H10.3495ZM14.2565 53.9316V51.1126C14.2565 50.773 14.2249 50.4809 14.2249 50.2361H14.8093C14.8093 50.4335 14.8251 50.6388 14.8251 50.8441H14.8409C15.0067 50.4809 15.4647 50.1413 16.0727 50.1413C16.1517 50.1413 16.2386 50.1492 16.3254 50.1808L16.2859 50.8046C16.1833 50.773 16.0648 50.7572 15.9543 50.7572C15.2041 50.7572 14.8725 51.2863 14.8725 52.1312V53.9316H14.2565ZM17.0879 53.9316V50.2361H17.7039V53.9316H17.0879ZM16.9458 48.791C16.9458 48.5462 17.1432 48.3409 17.3959 48.3409C17.6486 48.3409 17.846 48.5462 17.846 48.791C17.846 49.0516 17.6565 49.2411 17.3959 49.2411C17.1353 49.2411 16.9458 49.0516 16.9458 48.791ZM22.0725 50.2361L20.6116 53.9316H19.9325L18.4243 50.2361H19.1429L20.2958 53.1341H20.3116L21.4092 50.2361H22.0725ZM23.0787 51.1126L22.6918 50.7099C23.0708 50.3229 23.6236 50.1413 24.1605 50.1413C25.2502 50.1413 25.7082 50.6625 25.7082 51.7048V53.292C25.7082 53.5052 25.7319 53.7421 25.7635 53.9316H25.1713C25.1318 53.7658 25.1318 53.5368 25.1318 53.3789H25.116C24.8712 53.7579 24.4606 54.0264 23.8999 54.0264C23.1498 54.0264 22.5259 53.6474 22.5259 52.9288C22.5259 51.7048 23.9473 51.6337 24.8554 51.6337H25.0923V51.5232C25.0923 50.9862 24.7528 50.7099 24.1763 50.7099C23.7815 50.7099 23.3709 50.8441 23.0787 51.1126ZM25.0923 52.1549H24.4764C23.6946 52.1549 23.1892 52.3681 23.1892 52.8656C23.1892 53.3315 23.5367 53.5052 24.0026 53.5052C24.7133 53.5052 25.0765 52.992 25.0923 52.3918V52.1549ZM29.9531 50.7256L29.4635 51.16C29.2029 50.8441 28.9028 50.7099 28.5317 50.7099C27.7025 50.7099 27.284 51.3258 27.284 52.0839C27.284 52.8419 27.7815 53.4578 28.5317 53.4578C28.9344 53.4578 29.2424 53.3157 29.4714 52.9998L29.9294 53.4342C29.574 53.8448 29.0686 54.0264 28.5317 54.0264C27.3867 54.0264 26.6207 53.221 26.6207 52.0839C26.6207 50.9625 27.3946 50.1413 28.5317 50.1413C29.0765 50.1413 29.5819 50.3229 29.9531 50.7256ZM33.7862 50.2361L32.0016 54.7766C31.7568 55.4004 31.512 55.8268 30.7697 55.8268C30.596 55.8268 30.3828 55.811 30.217 55.7321L30.2959 55.1951C30.4223 55.2425 30.5565 55.2583 30.7303 55.2583C31.133 55.2583 31.283 55.0135 31.4173 54.6502L31.6699 53.9553L30.138 50.2361H30.8566L32.0016 53.1341H32.0174L33.115 50.2361H33.7862ZM36.4137 52.3207V51.7522H38.3484V52.3207H36.4137ZM45.3394 48.3409V48.9568H43.4916V53.9316H42.8283V48.9568H40.9805V48.3409H45.3394ZM47.9681 52.8972L48.434 53.2604C47.9997 53.8211 47.4785 54.0264 46.7915 54.0264C45.6307 54.0264 44.92 53.1578 44.92 52.0839C44.92 50.9389 45.7255 50.1413 46.8152 50.1413C47.8575 50.1413 48.5682 50.852 48.5682 52.076V52.2734H45.5833C45.6307 52.913 46.1203 53.4578 46.7915 53.4578C47.3206 53.4578 47.6759 53.2683 47.9681 52.8972ZM45.5833 51.7522H47.9049C47.8812 51.1284 47.4706 50.7099 46.7915 50.7099C46.1124 50.7099 45.6623 51.1284 45.5833 51.7522ZM49.5211 53.9316V51.1126C49.5211 50.773 49.4895 50.4809 49.4895 50.2361H50.0738C50.0738 50.4335 50.0896 50.6388 50.0896 50.8441H50.1054C50.2712 50.4809 50.7292 50.1413 51.3373 50.1413C51.4162 50.1413 51.5031 50.1492 51.5899 50.1808L51.5505 50.8046C51.4478 50.773 51.3294 50.7572 51.2188 50.7572C50.4686 50.7572 50.137 51.2863 50.137 52.1312V53.9316H49.5211ZM52.2972 53.9316V51.1126C52.2972 50.773 52.2656 50.4809 52.2656 50.2361H52.8499C52.8499 50.4335 52.8657 50.6388 52.8657 50.8441H52.8815C53.0473 50.4809 53.5053 50.1413 54.1134 50.1413C54.9109 50.1413 55.1636 50.5914 55.2821 50.8441C55.5506 50.4098 55.8901 50.1413 56.4508 50.1413C57.5089 50.1413 57.8563 50.7335 57.8563 51.689V53.9316H57.2404V51.7206C57.2404 51.2073 57.0588 50.7099 56.3402 50.7099C55.819 50.7099 55.3847 51.1363 55.3847 51.7996V53.9316H54.7688V51.8391C54.7688 51.0257 54.5635 50.7099 54.0581 50.7099C53.2606 50.7099 52.9131 51.2863 52.9131 52.1312V53.9316H52.2972ZM58.611 53.3394L59.1005 52.9604C59.3453 53.2604 59.6138 53.4578 60.0481 53.4578C60.4351 53.4578 60.8615 53.292 60.8615 52.8893C60.8615 52.4945 60.4666 52.3918 60.0718 52.305C59.369 52.147 58.7689 51.997 58.7689 51.231C58.7689 50.5124 59.4638 50.1413 60.1508 50.1413C60.6719 50.1413 61.1536 50.3387 61.4063 50.8125L60.8931 51.1521C60.7351 50.8915 60.4745 50.7099 60.1113 50.7099C59.7717 50.7099 59.3848 50.8757 59.3848 51.2231C59.3848 51.5311 59.827 51.6653 60.3166 51.7601C60.972 51.8864 61.5248 52.1233 61.5248 52.8656C61.5248 53.7026 60.7825 54.0264 60.0481 54.0264C59.4243 54.0264 58.9742 53.8606 58.611 53.3394Z" fill="#D9D9D9"/>
</g>
<defs>
<filter id="filter0_d_837_14796" x="11.3764" y="1.19674" width="29.8628" height="44.3097" filterUnits="userSpaceOnUse" color-interpolation-filters="sRGB">
<feFlood flood-opacity="0" result="BackgroundImageFix"/>
<feColorMatrix in="SourceAlpha" type="matrix" values="0 0 0 0 0 0 0 0 0 0 0 0 0 0 0 0 0 0 127 0" result="hardAlpha"/>
<feOffset/>
<feGaussianBlur stdDeviation="2.9612"/>
<feColorMatrix type="matrix" values="0 0 0 0 0 0 0 0 0 0 0 0 0 0 0 0 0 0 0.24 0"/>
<feBlend mode="normal" in2="BackgroundImageFix" result="effect1_dropShadow_837_14796"/>
<feBlend mode="normal" in="SourceGraphic" in2="effect1_dropShadow_837_14796" result="shape"/>
</filter>
<filter id="filter1_d_837_14796" x="11.3773" y="19.3706" width="44.3099" height="29.8624" filterUnits="userSpaceOnUse" color-interpolation-filters="sRGB">
<feFlood flood-opacity="0" result="BackgroundImageFix"/>
<feColorMatrix in="SourceAlpha" type="matrix" values="0 0 0 0 0 0 0 0 0 0 0 0 0 0 0 0 0 0 127 0" result="hardAlpha"/>
<feOffset/>
<feGaussianBlur stdDeviation="2.9612"/>
<feColorMatrix type="matrix" values="0 0 0 0 0 0 0 0 0 0 0 0 0 0 0 0 0 0 0.24 0"/>
<feBlend mode="normal" in2="BackgroundImageFix" result="effect1_dropShadow_837_14796"/>
<feBlend mode="normal" in="SourceGraphic" in2="effect1_dropShadow_837_14796" result="shape"/>
</filter>
<clipPath id="clip0_837_14796">
<rect width="69.0947" height="8.88361" fill="white" transform="translate(0.848022 46.9316)"/>
</clipPath>
</defs>
</svg>
