<svg width="19" height="19" viewBox="0 0 19 19" fill="none" xmlns="http://www.w3.org/2000/svg">
<path d="M16.8027 2.4181C14.1569 -0.218795 9.86633 -0.218795 7.23837 2.4181C5.38807 4.25052 4.83387 6.88742 5.54896 9.21147L1.3478 13.4126C1.05283 13.7165 0.847241 14.3154 0.909811 14.7445L1.17797 16.6931C1.2763 17.3367 1.87518 17.9445 2.51877 18.0339L4.46739 18.3021C4.89644 18.3646 5.49533 18.168 5.79925 17.8551L6.53221 17.1222C6.71099 16.9523 6.71099 16.6663 6.53221 16.4875L4.79812 14.7534C4.5389 14.4942 4.5389 14.0651 4.79812 13.8059C5.05734 13.5467 5.48639 13.5467 5.74561 13.8059L7.48865 15.549C7.65848 15.7188 7.94452 15.7188 8.11435 15.549L10.0093 13.6629C12.3244 14.3869 14.9613 13.8238 16.8027 11.9914C19.4396 9.35449 19.4396 5.055 16.8027 2.4181ZM12.0742 9.37236C10.8406 9.37236 9.83951 8.37124 9.83951 7.1377C9.83951 5.90417 10.8406 4.90304 12.0742 4.90304C13.3077 4.90304 14.3088 5.90417 14.3088 7.1377C14.3088 8.37124 13.3077 9.37236 12.0742 9.37236Z" fill="#D9D9D9"/>
</svg>
