<svg width="30" height="23" viewBox="0 0 30 23" fill="none" xmlns="http://www.w3.org/2000/svg">
<path d="M12.8013 22.0273C12.625 22.0273 12.4487 22.0273 12.2724 21.8507L1.69629 12.1368C1.52002 11.9602 1.34375 11.607 1.34375 11.4304C1.34375 11.2538 1.52002 10.9005 1.69629 10.7239L12.2724 1.01011C12.4487 0.833496 12.8013 0.833496 13.1538 0.833496C13.5063 1.01011 13.6826 1.36334 13.6826 1.71657V8.78116C13.6826 9.31101 13.3301 9.66424 12.8013 9.66424C12.2724 9.66424 11.9199 9.31101 11.9199 8.78116V3.65933L3.45898 11.4304L11.9199 19.2014V14.0796C11.9199 13.5498 12.2724 13.1965 12.8013 13.1965H21.6147C24.0825 13.1965 26.374 14.4328 27.7841 16.199V15.8458C27.7841 12.4901 24.9638 9.66424 21.6147 9.66424H16.3266C15.7979 9.66424 15.4452 9.31101 15.4452 8.78116C15.4452 8.25132 15.7979 7.89809 16.3266 7.89809H21.6147C26.0215 7.89809 29.5469 11.4304 29.5469 15.8458V21.1442C29.5469 21.674 29.1943 22.0273 28.6655 22.0273C28.1366 22.0273 27.7841 21.674 27.7841 21.1442C27.7841 17.7885 24.9638 14.9627 21.6147 14.9627H13.6826V21.1442C13.6826 21.4974 13.5063 21.8507 13.1538 22.0273H12.8013Z" fill="#E53935"/>
</svg>
