<svg width="23" height="22" viewBox="0 0 23 22" fill="none" xmlns="http://www.w3.org/2000/svg">
<path d="M15.776 3.37207H6.83736C4.15577 3.37207 2.36804 4.71287 2.36804 7.84139V14.0984C2.36804 17.227 4.15577 18.5678 6.83736 18.5678H15.776C18.4576 18.5678 20.2453 17.227 20.2453 14.0984V7.84139C20.2453 4.71287 18.4576 3.37207 15.776 3.37207ZM16.1961 8.8157L13.3983 11.0504C12.8084 11.5241 12.0575 11.7565 11.3067 11.7565C10.5558 11.7565 9.79605 11.5241 9.21504 11.0504L6.41724 8.8157C6.13121 8.5833 6.08651 8.15424 6.30998 7.8682C6.54239 7.58217 6.9625 7.52854 7.24854 7.76094L10.0463 9.9956C10.7257 10.5409 11.8788 10.5409 12.5581 9.9956L15.3559 7.76094C15.6419 7.52854 16.071 7.57323 16.2944 7.8682C16.5268 8.15424 16.4821 8.5833 16.1961 8.8157Z" fill="#D9D9D9"/>
</svg>
