<svg width="25" height="24" viewBox="0 0 25 24" fill="none" xmlns="http://www.w3.org/2000/svg">
<path d="M23.9339 0.31308C23.7149 0.0942079 23.3605 0.0942079 23.1416 0.31308L21.638 1.81739C21.1547 1.59009 20.558 1.53209 20.0835 1.53209L14.4303 1.52907C13.7544 1.55107 13.1235 1.82299 12.6545 2.29458L1.17988 13.7698C0.14904 14.7999 0.148212 16.4772 1.17837 17.5087L6.741 23.0716C7.23647 23.5671 7.90012 23.8402 8.60949 23.8402C9.3197 23.8402 9.98376 23.567 10.4786 23.0707L21.9522 11.5955C22.4226 11.1256 22.694 10.4953 22.7166 9.80764L22.7167 4.16527L22.717 4.11891C22.7203 3.85819 22.7242 3.18563 22.4346 2.60466L23.9332 1.106C24.1522 0.887125 24.1528 0.531907 23.9339 0.31308ZM21.9451 4.109L21.9444 9.79498C21.9286 10.2728 21.7377 10.7182 21.4067 11.0489L9.93256 22.5247C9.58327 22.8747 9.11368 23.0673 8.61023 23.0673C8.10743 23.0673 7.63784 22.8747 7.28813 22.5253L1.72549 16.9625C1.00905 16.245 1.00922 15.0331 1.72679 14.3161L13.2014 2.84035C13.5316 2.5087 13.9772 2.3172 14.4427 2.30189L20.0832 2.30534C20.4489 2.30534 20.774 2.34611 21.0367 2.41942L18.6772 4.77938C18.2229 4.62131 17.6996 4.71899 17.3363 5.08191C16.831 5.58737 16.831 6.40726 17.3363 6.9127C17.8419 7.41815 18.6615 7.41815 19.1668 6.9127C19.5298 6.54978 19.6275 6.02601 19.4693 5.57185L21.8425 3.19831C21.9147 3.4435 21.9494 3.74649 21.9451 4.109Z" fill="#E53935"/>
</svg>
