<svg width="455" height="107" viewBox="0 0 455 107" fill="none" xmlns="http://www.w3.org/2000/svg">
<path d="M91.62 106.695C94.102 106.482 96.1585 104.567 96.5839 102.085L105.377 48.1912C105.874 45.2128 103.817 42.3762 100.839 41.8799L99.9878 41.8089C97.2931 41.8089 94.9529 43.7236 94.5274 46.4183L89.2089 78.8967L77.5791 45.4964C76.7991 43.2981 74.7426 41.8089 72.2606 41.8089C69.8495 41.8799 67.793 43.5109 67.1548 45.7801L58.1488 77.5494L52.0503 46.2056C51.5539 43.6527 49.2846 41.738 46.6608 41.738L45.5971 41.8089C44.1789 42.0926 42.9024 42.9436 42.0514 44.1491C41.2005 45.3546 40.9168 46.8438 41.2005 48.2621L51.6957 102.156C52.1921 104.638 54.3195 106.482 56.8724 106.624H57.156C59.638 106.624 61.6945 104.993 62.4036 102.653L72.9697 65.4941L86.0178 102.936C86.727 105.206 88.7835 106.695 91.62 106.695ZM117.716 106.695H142.536C145.585 106.695 148.067 104.213 148.067 101.164C148.067 98.1143 145.585 95.6323 142.536 95.6323H123.247V79.6768H142.536C145.585 79.6768 148.067 77.1948 148.067 74.1455C148.067 71.0962 145.585 68.6143 142.536 68.6143H123.247V52.6587H142.536C145.585 52.6587 148.067 50.1767 148.067 47.1275C148.067 44.0782 145.585 41.5962 142.536 41.5962H117.716C114.667 41.5962 112.185 44.0782 112.185 47.1275V101.022C112.256 104.213 114.738 106.695 117.716 106.695ZM182.673 106.695C185.722 106.695 188.204 104.213 188.204 101.164C188.204 98.1143 185.722 95.6323 182.673 95.6323H167.356V47.3402C167.356 44.2909 164.874 41.8089 161.824 41.8089C158.775 41.8089 156.293 44.2909 156.293 47.3402V101.234C156.293 104.284 158.775 106.766 161.824 106.766H182.673V106.695ZM215.08 106.695C225.434 106.695 235.007 101.376 240.68 92.5121C242.311 89.9592 241.602 86.5554 239.049 84.9244C238.127 84.3571 237.135 84.0734 236.071 84.0734C234.156 84.0734 232.454 84.9953 231.461 86.6263C227.774 92.2994 221.675 95.7032 215.151 95.7032C204.302 95.7032 195.437 86.3426 195.437 74.8546C195.437 63.3666 204.302 54.0061 215.151 54.0061C219.832 54.0061 224.37 55.7789 227.987 59.0409C228.979 59.9628 230.327 60.4592 231.674 60.4592C233.234 60.4592 234.723 59.821 235.787 58.6154C236.78 57.5517 237.276 56.1335 237.205 54.6443C237.135 53.1551 236.496 51.8077 235.362 50.815C229.76 45.7801 222.597 43.0145 215.151 43.0145C198.203 43.0145 184.446 57.2681 184.446 74.8546C184.446 92.4412 198.203 106.695 215.08 106.695Z" fill="#E53935"/>
<path d="M270.393 106.691C287.909 106.691 302.233 92.4374 302.233 74.8508C302.233 57.2643 287.979 43.0107 270.393 43.0107C252.877 43.0107 238.553 57.2643 238.553 74.8508C238.553 92.4374 252.877 106.691 270.393 106.691ZM270.393 54.0732C281.881 54.0732 291.171 63.4338 291.171 74.9218C291.171 86.4097 281.81 95.7703 270.393 95.7703C258.905 95.7703 249.544 86.4097 249.544 74.9218C249.615 63.4338 258.976 54.0732 270.393 54.0732ZM309.821 106.62L310.743 106.691C313.437 106.691 315.707 104.776 316.132 102.153L321.451 70.9506L332.3 103.004C333.01 105.131 335.066 106.62 337.69 106.762C340.101 106.691 342.157 105.06 342.867 102.72L351.66 71.5179L358.255 102.436C358.822 104.989 361.02 106.762 363.644 106.762C364.07 106.762 364.424 106.691 364.779 106.62C366.197 106.336 367.473 105.485 368.254 104.209C369.034 103.004 369.317 101.514 369.034 100.096L357.758 47.4782C357.262 44.9962 355.064 43.2234 352.794 43.1525L352.014 43.0816C349.674 43.0816 347.83 44.6417 347.121 47.1237L337.122 82.6513L324.996 46.84C324.216 44.6417 322.16 43.0816 319.394 43.0816C316.912 43.2943 314.856 45.1381 314.43 47.62L305.424 100.238C305.141 101.656 305.495 103.145 306.346 104.351C307.126 105.556 308.403 106.407 309.821 106.62ZM410.305 101.231C410.305 98.1814 407.823 95.6994 404.774 95.6994H387.187V80.3821H404.774C407.823 80.3821 410.305 77.9001 410.305 74.8508C410.305 71.8016 407.823 69.3196 404.774 69.3196H387.187V54.0023H404.774C407.823 54.0023 410.305 51.5203 410.305 48.471C410.305 45.4217 407.823 42.9398 404.774 42.9398H381.727C378.678 42.9398 376.196 45.4217 376.196 48.471V101.089C376.196 104.138 378.678 106.62 381.727 106.62H404.774C407.823 106.691 410.305 104.209 410.305 101.231ZM418.815 25.5659C419.24 25.7078 419.666 25.8496 420.091 25.8496C421.439 25.8496 422.715 25.0695 423.282 23.7222L430.87 4.8592C431.579 3.08636 430.728 1.10078 428.956 0.391644C427.183 -0.317491 425.197 0.533474 424.488 2.30631L416.9 21.1693C416.262 22.8712 417.113 24.8568 418.815 25.5659ZM429.877 40.9542L450.017 33.2246C451.79 32.5155 452.641 30.5299 452.002 28.7571C451.293 26.9842 449.379 26.1332 447.535 26.7715L427.395 34.501C425.623 35.2102 424.701 37.1958 425.41 38.9686C425.906 40.316 427.254 41.1669 428.601 41.1669C429.097 41.1669 429.523 41.096 429.877 40.9542ZM452.144 60.1008L433.069 50.7402C431.367 49.8893 429.31 50.5984 428.459 52.3003C427.608 54.0023 428.317 56.0588 430.019 56.9097L449.095 66.2703C449.591 66.483 450.088 66.6249 450.584 66.6249C451.861 66.6249 453.066 65.9157 453.704 64.7102C454.555 63.0083 453.846 60.8809 452.144 60.1008ZM30.9889 23.6513C31.5562 24.9986 32.8326 25.7787 34.18 25.7787C34.6055 25.7787 35.031 25.7078 35.4564 25.495C37.2293 24.7859 38.0802 22.8003 37.3711 21.0275L29.7834 2.16448C29.0742 0.391644 27.0887 -0.459315 25.3158 0.24982C23.543 0.958956 22.692 2.94453 23.4012 4.71737L30.9889 23.6513ZM26.805 34.572L6.66556 26.8424C4.89273 26.1332 2.90715 27.0551 2.19801 28.828C1.48888 30.6008 2.41075 32.5864 4.18359 33.2955L24.323 41.0251C24.7485 41.1669 25.174 41.2378 25.5286 41.2378C26.9468 41.2378 28.2233 40.3869 28.7197 39.0395C29.4997 37.1958 28.5778 35.2102 26.805 34.572ZM21.2028 50.6693L2.1271 60.1008C0.425175 60.9518 -0.28396 63.0083 0.567002 64.7102C1.13431 65.9157 2.41075 66.6249 3.6872 66.6249C4.18359 66.6249 4.67999 66.483 5.17638 66.2703L24.2521 56.9097C25.954 56.0588 26.6632 54.0023 25.8122 52.3003C24.9613 50.5984 22.9048 49.8893 21.2028 50.6693Z" fill="#E53935"/>
</svg>
